<svg width="32" height="32" viewBox="0 0 121 121" fill="none" xmlns="http://www.w3.org/2000/svg">
  <circle cx="60.5" cy="60.5" r="60.5" fill="white"/>
  <circle cx="60.5" cy="60.5" r="58.6385" stroke="#00B7DC" stroke-width="2" fill="none"/>
  <path d="M29.9387 35.3692H0V84.1992H29.9387V35.3692Z" fill="white"/>
  <circle cx="61.5279" cy="59.5692" r="50.2615" fill="white"/>
  <path d="M60.9981 109.272C55.7645 109.278 50.5644 108.457 45.5854 106.843C45.6338 106.389 45.6951 105.923 45.7713 105.46C46.0631 104.075 46.8102 102.83 47.8956 101.923C49.085 100.84 50.6276 100.225 52.2352 100.195C52.421 100.195 52.6069 100.195 52.7927 100.221C54.2628 100.363 56.8443 100.514 59.6785 100.514C62.89 100.679 66.1052 100.29 69.1848 99.367C71.9001 98.1235 73.1174 94.9254 71.9149 92.1871C71.2012 90.6197 71.5414 88.7749 72.768 87.5668C73.6452 86.77 74.1935 85.6736 74.305 84.4915C74.305 83.3076 72.9538 82.3786 72.9408 82.3693C73.8478 82.293 74.6971 81.8928 75.3327 81.2412C75.5967 80.9248 75.7025 80.5041 75.6226 80.1001C75.3531 79.0968 74.6953 78.2442 73.7958 77.7267C73.2531 77.3711 72.8925 76.7959 72.8107 76.1518C72.6825 75.02 73.0412 73.8863 73.7958 73.0356C74.673 72.1718 75.8698 71.7102 77.0983 71.7623C78.797 71.9075 80.4083 70.9786 81.1387 69.4354C82.0327 67.464 77.5425 61.0584 74.2622 56.3804C73.8478 55.7884 73.4593 55.2356 73.1099 54.7292C71.0656 51.7657 71.0656 51.6968 71.0656 48.0277C71.0656 46.2071 71.0656 43.4539 70.8091 39.0067C69.6754 25.9014 60.6951 14.8048 48.1279 10.9831C72.1807 4.57565 97.2724 16.8804 106.974 39.8369C114.885 58.577 110.657 80.2509 96.2818 94.6257C86.9354 104.017 74.2362 109.287 60.9981 109.272Z" fill="#00B7DC"/>
  <path d="M27.8773 35.3692H5.5752V39.0923H27.8773V35.3692Z" fill="#00B7DC"/>
  <circle cx="31.5946" cy="37.2308" r="5.5752" fill="#00B7DC"/>
  <circle cx="31.5946" cy="59.5692" r="5.5752" fill="#00B7DC"/>
  <circle cx="31.5946" cy="83.7692" r="5.5752" fill="#00B7DC"/>
  <path d="M27.8773 57.7077H5.5752V61.4307H27.8773V57.7077Z" fill="#00B7DC"/>
  <path d="M27.8773 81.9077H5.5752V85.6308H27.8773V81.9077Z" fill="#00B7DC"/>
  <path d="M5.5753 81.9077H3.7168V85.6308H5.5753V81.9077Z" fill="white"/>
</svg>

